# xmcd
# 
# Track frame offsets:
#     150
#     23640
#     39453
#     61540
#     77185
#     96558
#     118293
# 
# Disc length: 1845
# 
# Revision: 12
# Processed by: cddbd v1.5.2PL0 Copyright (c) Steve Scherf et al.
# Submitted via: fre:ac v1.0.17
# 
DISCID=54073307
DTITLE=WANDS - Little Bit …
DYEAR=1993
DGENRE=Rock
TTITLE0=天使になんてなれなかった
TTITLE1=恋せよ乙女
TTITLE2=DON'T CRY
TTITLE3=君に もどれない
TTITLE4=声にならないほどに愛しい
TTITLE5=Little Bit …
TTITLE6=愛を語るより口づけをかわそう
EXTD=
EXTT0=
EXTT1=
EXTT2=
EXTT3=
EXTT4=
EXTT5=
EXTT6=
PLAYORDER=
